<?xml version="1.0" encoding="utf-8"?>
<!-- Generator: Adobe Illustrator 21.0.2, SVG Export Plug-In . SVG Version: 6.00 Build 0)  -->
<svg version="1.1" id="Layer_1" xmlns="http://www.w3.org/2000/svg" xmlns:xlink="http://www.w3.org/1999/xlink" x="0px" y="0px"
	 viewBox="0 0 250 248" style="enable-background:new 0 0 250 248;" xml:space="preserve">
<style type="text/css">
	.st0{fill:#007393;}
	.st1{filter:url(#Adobe_OpacityMaskFilter);}
	.st2{fill:#FFFFFF;}
	.st3{mask:url(#mask-2);fill:#FFFFFF;}
	.st4{filter:url(#Adobe_OpacityMaskFilter_1_);}
	.st5{mask:url(#mask-4);fill:#FFFFFF;}
</style>
<title>Appointment icon</title>
<desc>Created with Sketch.</desc>
<g id="Page-1">
	<g id="HEATH-HOMEPAGE" transform="translate(-900.000000, -730.000000)">
		<g id="Group-9" transform="translate(241.000000, 705.000000)">
			<g id="Appointment-icon" transform="translate(659.000000, 25.000000)">
				<g id="Group-3" transform="translate(0.000000, 0.607666)">
					<ellipse id="Oval" class="st0" cx="125" cy="123.5" rx="125" ry="123.5"/>
					<g id="Clip-2">
					</g>
					<defs>
						<filter id="Adobe_OpacityMaskFilter" filterUnits="userSpaceOnUse" x="64.7" y="43.6" width="123" height="157.4">
							<feColorMatrix  type="matrix" values="1 0 0 0 0  0 1 0 0 0  0 0 1 0 0  0 0 0 1 0"/>
						</filter>
					</defs>
					<mask maskUnits="userSpaceOnUse" x="64.7" y="43.6" width="123" height="157.4" id="mask-2">
						<g class="st1">
							<polygon id="path-1" class="st2" points="126.2,201.1 64.7,201.1 64.7,43.6 126.2,43.6 187.7,43.6 187.7,201.1 							"/>
						</g>
					</mask>
					<path id="Fill-1" class="st3" d="M130.1,51.4c-1-1-2.4-1.6-4-1.6c-1.5,0-2.9,0.6-4,1.6c-1,1-1.6,2.4-1.6,3.9
						c0,1.5,0.6,2.9,1.6,3.9c0.9,0.9,2.2,1.5,3.7,1.6h0.6c1.4-0.1,2.7-0.7,3.7-1.6c1-1,1.6-2.4,1.6-3.9
						C131.8,53.8,131.2,52.4,130.1,51.4L130.1,51.4z M126.2,43.6c3.6,0,6.9,0.2,9.2,2.6c2.4,2.3,3.8,5.6,3.8,9.1v0h14.9v18.5H98.3
						V55.3h14.9v0c0-3.6,1.5-6.8,3.8-9.1C119.3,43.8,122.6,43.6,126.2,43.6L126.2,43.6z M101.4,95.3h49.3l-5.6,4.9h-38.8v39.4h39.7
						v-17.2l5-4.4v26.5h-49.7V95.3z M77.1,60.8h16.2v7.4H77.1c-1.4,0-2.6,0.6-3.5,1.4c-0.9,0.9-1.5,2.1-1.5,3.5v115.6
						c0,2.7,2.2,4.9,5,4.9h98.1c2.7,0,5-2.2,5-4.9V73.1c0-1.3-0.6-2.6-1.5-3.5c-0.9-0.9-2.1-1.4-3.5-1.4h-16.2v-7.4h16.2
						c3.4,0,6.5,1.4,8.8,3.6c2.2,2.2,3.6,5.3,3.6,8.7v115.6c0,6.8-5.6,12.3-12.4,12.3H77.1c-6.8,0-12.4-5.5-12.4-12.3V73.1
						c0-3.4,1.4-6.5,3.6-8.7C70.6,62.2,73.7,60.8,77.1,60.8L77.1,60.8z"/>
				</g>
				<g id="Clip-5">
				</g>
				<defs>
					<filter id="Adobe_OpacityMaskFilter_1_" filterUnits="userSpaceOnUse" x="90.2" y="96.8" width="72" height="76.6">
						<feColorMatrix  type="matrix" values="1 0 0 0 0  0 1 0 0 0  0 0 1 0 0  0 0 0 1 0"/>
					</filter>
				</defs>
				<mask maskUnits="userSpaceOnUse" x="90.2" y="96.8" width="72" height="76.6" id="mask-4">
					<g class="st4">
						<polygon id="path-3" class="st2" points="64.7,201.7 187.7,201.7 187.7,44.2 64.7,44.2 						"/>
					</g>
				</mask>
				<path id="Fill-4" class="st5" d="M90.2,160.5h72v-4.9h-72V160.5z M90.2,173.4h72v-4.9h-72V173.4z M112.1,116.2
					c-1.3-1.5-1.2-3.9,0.3-5.2c1.5-1.3,3.9-1.2,5.2,0.3l10.1,11.4l28.2-25c1.5-1.4,3.9-1.2,5.2,0.3s1.2,3.8-0.3,5.2L130,130.6
					c-1.6,1.5-4,1.4-5.4-0.2L112.1,116.2z"/>
			</g>
		</g>
	</g>
</g>
</svg>
