<?xml version="1.0" encoding="UTF-8"?>
<svg width="249px" height="243px" viewBox="0 0 249 243" version="1.1" xmlns="http://www.w3.org/2000/svg" xmlns:xlink="http://www.w3.org/1999/xlink">
    <!-- Generator: Sketch 40.3 (33839) - http://www.bohemiancoding.com/sketch -->
    <title>Page 1</title>
    <desc>Created with Sketch.</desc>
    <defs>
        <polygon id="path-1" points="248.03801 1.9140625 -1.14603693e-13 1.9140625 -1.14603693e-13 243.607955 248.038265 243.607955 248.038265 1.9140625 248.03801 243.607457 -0.000255102041 243.607457 -0.000255102041 1.91356534 248.03801 1.91356534"></polygon>
    </defs>
    <g id="Page-1" stroke="none" stroke-width="1" fill="none" fill-rule="evenodd">
        <g id="HEATH-HOMEPAGE" transform="translate(-982.000000, -1182.000000)">
            <g id="Page-1" transform="translate(982.000000, 1180.000000)">
                <g id="Group-3" transform="translate(0.000000, 0.572976)">
                    <mask id="mask-2" fill="white">
                        <use xlink:href="#path-1"></use>
                    </mask>
                    <g id="Clip-2"></g>
                </g>
                <path d="M248.03801,123.333487 C248.03801,190.077095 192.5125,244.180433 124.020153,244.180433 C55.5252551,244.180433 -0.000255102041,190.077095 -0.000255102041,123.333487 C-0.000255102041,56.5898793 55.5252551,2.48654119 124.020153,2.48654119 C192.5125,2.48654119 248.03801,56.5898793 248.03801,123.333487" id="Fill-1" fill="#83B341"></path>
                <polygon id="Fill-4" fill="#FCFCFC" points="183.623469 123.071236 129.807143 58.3808949 74.9882653 60.8269176 131.319898 123.071236 78.5061224 186.294957 131.317347 189.230682"></polygon>
            </g>
        </g>
    </g>
</svg>