<?xml version="1.0" encoding="UTF-8"?>
<svg width="258px" height="111px" viewBox="0 0 258 111" version="1.1" xmlns="http://www.w3.org/2000/svg" xmlns:xlink="http://www.w3.org/1999/xlink">
    <!-- Generator: Sketch 40.3 (33839) - http://www.bohemiancoding.com/sketch -->
    <title>Layer_1</title>
    <desc>Created with Sketch.</desc>
    <defs></defs>
    <g id="Page-1" stroke="none" stroke-width="1" fill="none" fill-rule="evenodd">
        <g id="HEATH-HOMEPAGE" transform="translate(-211.000000, -7352.000000)" fill="#FFFFFF">
            <g id="heath-logo" transform="translate(104.000000, 7329.000000)">
                <g id="Layer_1" transform="translate(107.000000, 23.000000)">
                    <polygon id="Shape" points="57.8048397 54.8328254 57.8048397 30.2161634 27.8783884 30.2161634 27.8783884 54.8328254 23.9037815 54.8328254 23.9037815 3.23440985 27.8146246 3.23440985 27.8146246 26.8853261 57.8048397 26.8853261 57.8048397 3.23440985 61.7156827 3.23440985 61.7156827 54.8328254"></polygon>
                    <path d="M74.2771406,37.0552201 C74.6413011,45.7141529 82.2971935,52.5700601 91.642134,52.6056975 C97.8778034,52.7391631 103.69894,49.7193791 106.83916,44.7220587 L110.898785,44.7220587 C106.587024,52.9777542 96.7031727,57.3836846 87.0571522,55.3499584 C77.4111317,53.3162322 70.553406,45.3805785 70.5150796,36.2077289 C70.5416568,29.1663467 74.6173157,22.672989 81.206795,19.1736409 C87.7962742,15.6742928 95.8984752,15.7005885 102.461377,19.2426227 C109.024279,22.7846569 113.050821,29.3043104 113.024243,36.3456926 L113.024243,37.1143473 L74.2771406,37.0552201 Z M91.7271524,19.3170329 C82.7571396,19.2815113 75.2155359,25.550717 74.2771406,33.8229282 L109.092146,33.8229282 C108.034234,25.65467 100.598899,19.485738 91.7271524,19.4155784 L91.7271524,19.3170329 Z" id="Shape"></path>
                    <path d="M157.743884,54.8328254 L157.743884,46.9491867 L157.595102,46.9491867 C153.964672,52.5702119 147.357786,55.9495598 140.293872,55.7985712 C128.555291,55.7985712 119.03929,46.9745079 119.03929,36.0894743 C119.03929,25.2044407 128.555291,16.3803775 140.293872,16.3803775 C147.359314,16.282419 153.93565,19.715452 157.510083,25.3677256 L157.658865,25.3677256 L157.658865,17.8782688 L161.420926,17.8782688 L161.420926,54.8328254 L157.743884,54.8328254 Z M140.293872,19.3564511 C135.496647,19.2559545 130.866962,20.9939193 127.496142,24.1606665 C124.125322,27.3274137 122.311607,31.6427591 122.482532,36.0894743 C122.482532,45.1784774 130.428393,52.5465702 140.230108,52.5465702 C150.031824,52.5465702 157.977684,45.1784774 157.977684,36.0894743 C158.07498,31.6915408 156.25577,27.4430141 152.931537,24.304855 C149.607304,21.166696 145.058905,19.4040406 140.315127,19.4155784 L140.293872,19.3564511 Z" id="Shape"></path>
                    <polygon id="Shape" points="180.018686 20.4010332 180.018686 54.8328254 176.320388 54.8328254 176.320388 20.4010332 167.520991 20.4010332 167.520991 17.3264141 176.256625 17.3264141 176.256625 3.23440985 179.933667 3.23440985 179.933667 17.2475777 190.008339 17.2475777 190.008339 20.3813241"></polygon>
                    <path d="M228.734187,54.8328254 L228.734187,34.611292 C228.734187,28.895654 226.927548,25.1312165 224.29198,22.7858339 C221.522143,20.5110906 217.914865,19.3114135 214.217308,19.4352875 C204.822783,19.4352875 199.700428,25.3480165 199.700428,33.6652554 L199.700428,54.8328254 L196.023386,54.8328254 L196.023386,0.455427193 L199.700428,0.455427193 L199.700428,23.3179795 L199.84921,23.3179795 C201.974669,19.4747057 207.522114,16.281832 214.132289,16.3409593 C218.807294,16.1437624 223.381375,17.642421 226.885039,20.5192878 C230.349535,23.4559432 232.368721,28.1269992 232.368721,34.5324557 L232.368721,54.8328254 L228.734187,54.8328254 Z" id="Shape"></path>
                    <path d="M29.4937366,64.5888284 C29.8634657,64.7526664 30.1019584,65.095832 30.1101195,65.4757377 C30.1101195,65.9093378 29.8125553,66.2246834 29.2386816,66.4217744 C28.5811418,66.5449978 27.9115599,66.6044452 27.2407509,66.5991562 C26.1438977,66.6344418 25.0571945,66.8068091 24.0100545,67.1115928 L18.441354,68.786866 C15.6924281,69.680345 12.7380412,70.7906242 9.57819335,72.1177034 C9.57819335,73.0374612 9.34439295,74.7850011 8.87679215,77.3603231 C8.79177382,77.8990384 8.64299175,78.8385054 8.43044593,80.178724 L11.0235049,79.0355964 C12.6848803,78.3140707 14.404682,77.7143921 16.1671137,77.2420685 C18.2789691,76.6177903 20.4612987,76.220997 22.6710158,76.0595227 C22.9577426,76.0398488 23.2447257,76.0944366 23.4999445,76.2171955 C23.6797993,76.3407673 23.7766049,76.542742 23.7549995,76.7493411 C23.7702585,77.3724851 23.3066831,77.918086 22.6497612,78.0501415 C22.0404632,78.0501415 20.6234911,78.280081 18.3988448,78.7399599 C14.6975483,79.6315407 11.1939622,81.1191979 8.04786346,83.1350885 C7.75029931,85.9075015 7.60151724,88.1017809 7.60151724,89.7179268 L7.60151724,91.0187272 C7.60151724,91.3537819 7.60151724,91.4129092 7.77155389,91.7479638 C7.84072259,91.9863834 7.88345341,92.2307298 7.89908139,92.4772004 C7.89908139,93.1867279 7.44565031,93.5414916 6.53878814,93.5414916 C6.17022357,93.5623038 5.8087492,93.4410647 5.5398228,93.206437 C5.41218179,92.8513251 5.36868263,92.4748539 5.4122953,92.1027276 C5.4122953,91.5377335 5.46897419,90.2632119 5.58233196,88.2791628 C5.69568973,86.2951137 5.75236861,84.869489 5.75236861,84.0022888 C5.22652365,83.827606 4.86585049,83.3764907 4.83842159,82.8591611 C4.81420623,82.5633968 4.92174917,82.2713504 5.13598574,82.0510882 C5.41034608,81.7671872 5.7012606,81.497426 6.0074236,81.2430152 C6.12078137,80.3232573 6.25539372,78.9501903 6.41126065,77.123814 C6.55295787,75.5208074 6.65923078,74.2068676 6.73007938,73.1819946 C5.06456502,73.8623184 3.32621586,74.3776134 1.5439614,74.7193041 C0.914850165,74.6670627 0.44426229,74.1608735 0.481232307,73.5761765 C0.476132853,73.2890949 0.565066754,73.0073318 0.736287289,72.7681036 C1.49609416,72.3884339 2.31276925,72.1160744 3.15930962,71.9600306 C4.39338427,71.6914319 5.60743001,71.3490928 6.79384313,70.9351575 C6.79384313,69.6869147 7.07015269,68.9511085 7.62277182,68.7277387 C7.77065631,68.706307 7.92123355,68.706307 8.06911804,68.7277387 C8.83428299,68.7277387 9.28771407,69.1876176 9.42941128,70.1073755 C13.1418783,68.8591327 17.5486616,67.433508 22.6497612,65.8305015 C24.6606984,65.2271901 26.7333467,64.8177047 28.8348445,64.6085375 C29.0457428,64.5330214 29.2780282,64.5260732 29.4937366,64.5888284 L29.4937366,64.5888284 Z" id="Shape"></path>
                    <path d="M34.9774187,92.8319641 C34.8130686,92.9763826 34.5819915,93.0354929 34.3610358,92.9896369 C34.0950769,92.9778549 33.8440847,92.8720632 33.6596346,92.6940005 C33.4447772,92.4281821 33.3058626,92.1163175 33.2557976,91.787382 C31.6743016,92.9261953 29.7681759,93.6112827 27.7721155,93.7582917 C26.8851744,93.8000578 26.0205189,93.4922302 25.3916023,92.9108005 C24.7964634,92.3194531 24.4824719,91.5311902 24.5201644,90.7230908 C24.5596445,89.3206329 25.0976255,87.9695461 26.0504943,86.8798169 C26.8526381,85.7447311 28.1190512,84.9618455 29.5575003,84.7118162 C31.5837705,84.4621677 33.0786761,85.6578529 34.0422171,88.2988719 C34.4962188,87.1847393 34.7197495,86.0012543 34.7011091,84.8103617 C34.7097555,83.0870688 34.2413891,81.3905449 33.3408159,79.8830875 C32.8349534,78.9013232 31.7504741,78.2902135 30.5777203,78.3260689 C29.8303124,78.3404247 29.0990358,78.5302936 28.4522621,78.8779236 C27.7579457,79.2458267 27.3824481,79.5808814 27.3257692,79.8830875 C27.3257692,80.0013421 27.3257692,80.0801785 26.9856959,80.0801785 C26.2488704,80.0801785 25.8521182,79.784542 25.7954393,79.1932691 C25.7387604,78.6019962 26.2630401,77.9975839 27.3682784,77.3800322 C28.4353614,76.8115052 29.6446068,76.5124872 30.8752844,76.512832 C31.6864919,76.4814147 32.4904349,76.6660764 33.1920338,77.0449776 C35.6150562,78.4640325 36.8265673,81.0262151 36.8265673,84.7315253 C36.8055617,86.58984 36.5269681,88.437938 35.9976386,90.2303634 C35.846158,91.1515239 35.4994124,92.0357389 34.9774187,92.8319641 L34.9774187,92.8319641 Z M32.575651,89.7770541 C31.7821466,87.4776595 30.9319633,86.4067986 30.0251011,86.5644713 C28.8897447,86.7353303 27.8775153,87.3255277 27.2194963,88.2003264 C26.683862,88.8742556 26.3935308,89.6888196 26.3905676,90.5259998 C26.3905676,91.1172727 26.5180951,91.4720365 26.7944047,91.6297092 C27.0973543,91.7927942 27.443189,91.874672 27.79337,91.8662184 C29.5863765,91.6587652 31.2614756,90.9269895 32.575651,89.7770541 L32.575651,89.7770541 Z" id="Shape"></path>
                    <path d="M61.2268273,92.2209821 C60.8430779,92.2419744 60.483065,92.0478841 60.3128803,91.7282547 C59.8988845,90.3641612 59.7477846,88.9430156 59.8665341,87.5302171 C59.8665341,85.874653 59.9090433,84.2190888 59.9940616,82.5635247 C59.9940616,79.9356451 59.6610731,78.4574628 58.9950962,78.1289779 C58.7967201,78.0238627 58.1519978,78.7859478 57.0609293,80.4152331 C55.8195924,82.3019816 54.7462223,84.2794427 53.8514874,86.3279622 C53.0070407,88.3083031 52.2971653,90.3357382 51.7260292,92.398364 C51.3717862,93.7123038 50.9608643,94.297007 50.4932635,94.1524736 C49.822375,94.0394797 49.2973338,93.5526158 49.1754794,92.9305096 C49.1754794,92.9305096 49.1754794,91.5311638 49.0054428,88.9886903 C48.7645575,82.6423611 48.4599085,79.3575116 48.0914957,79.1341418 C47.723083,78.9107721 46.8020511,80.0670391 45.3284001,82.6029429 C44.050447,85.1666186 43.1496989,87.8778733 42.6503228,90.6639635 L42.6503228,92.4377822 C42.6503228,93.206437 42.5227953,93.6794553 42.2677403,93.8371281 C41.9564658,94.0152908 41.5897969,94.0916189 41.2262658,94.0539282 C40.871072,94.0824646 40.5228457,93.9503668 40.2910642,93.6991644 C40.0836178,93.1766244 40.0037661,92.6179177 40.0572638,92.0633094 C40.0572638,91.1961091 40.2768945,88.6076477 40.7161558,84.2979252 C40.7855064,83.4056033 40.7855064,82.50981 40.7161558,81.617488 C40.6311375,80.3035482 40.5886283,79.6859965 40.5886283,79.7648329 C40.5886283,78.9239115 41.01372,78.5034507 41.8639032,78.5034507 C42.1603972,78.488725 42.4485902,78.5970645 42.6503228,78.7990872 C43.2440487,79.5003292 43.5925906,80.3530229 43.6492881,81.2430152 C45.5763702,77.5245656 46.9933423,75.6653408 47.9002045,75.6653408 C48.7928475,75.7284541 49.5644819,76.2670225 49.8768806,77.0449776 C50.316142,77.6625293 50.670385,80.9867969 50.9396097,87.0177806 C51.9456599,84.8760587 52.9021161,83.036543 53.8089783,81.4992335 C55.9769456,77.7676445 57.6631424,75.7967348 58.8675688,75.5865044 C59.3068301,75.5865044 59.8027704,75.836153 60.3553895,76.3354501 C60.8362291,76.766482 61.1940986,77.3015017 61.396864,77.8924687 C61.7477629,79.9186587 61.8971728,81.9704578 61.8432102,84.0219979 L61.8432102,89.2646176 C61.8697742,89.5999972 61.9411696,89.9310173 62.055756,90.2500725 C62.1701309,90.5691797 62.241521,90.9001752 62.2683019,91.2355273 C62.310811,91.8924972 61.9636528,92.2209821 61.2268273,92.2209821 L61.2268273,92.2209821 Z" id="Shape"></path>
                    <path d="M69.9199513,66.3035198 C69.7215752,66.6845623 69.3531625,67.4729262 68.8147131,68.6686114 C68.6151197,69.1915662 68.4796543,69.7336957 68.410876,70.2847573 C68.410876,70.7183575 68.2975182,70.9877151 68.0708027,71.0928303 C67.6669657,71.5461395 67.2843832,71.6249759 66.9230553,71.3293395 C66.6493962,71.0058029 66.5269152,70.5940934 66.582982,70.1862119 C66.6095728,69.2945623 66.8491269,68.4194838 67.2843832,67.6240293 L68.0282935,65.6531196 C68.1181039,65.2735071 68.4806161,65.002945 68.8997314,65.0027194 C69.6648964,65.055277 70.0049697,65.4888771 69.9199513,66.3035198 L69.9199513,66.3035198 Z M69.9199513,79.0750145 C69.3389928,83.9891494 69.0060043,87.0834776 68.920986,88.3579992 C68.8481202,89.1192267 68.9200626,89.886406 69.1335318,90.6245453 C69.2575091,90.926003 69.3569751,91.2356441 69.4310959,91.5508729 C69.420335,91.7848996 69.3774812,92.0167033 69.3035685,92.2406912 C69.1902107,92.6217338 68.8572222,92.8122551 68.3046031,92.8122551 C67.9374882,92.8042252 67.5846206,92.6789109 67.3056378,92.4574913 C66.9797342,92.2209821 66.8167824,91.3997698 66.8167824,89.9938542 C66.8167824,89.9938542 66.9443099,87.1557443 67.2206194,81.7357426 C67.3339772,79.9487845 67.4048258,78.9698994 67.4331653,78.7990872 C67.6032019,77.8793293 67.9716147,77.406311 68.5384035,77.3800322 C68.9359522,77.3538486 69.3204948,77.5172818 69.5586234,77.8136323 C69.8304348,78.1823227 69.9300783,78.637206 69.834933,79.0750145 L69.9199513,79.0750145 Z" id="Shape"></path>
                    <path d="M79.9733686,65.8502106 C80.2174406,66.1420804 80.3383517,66.5064681 80.3134419,66.8750836 C80.3134419,67.2824049 80.1504901,68.4912295 79.8245865,70.5015574 C79.3569857,73.5104795 78.9460638,76.3880077 78.5918207,79.1341418 C78.1317461,82.5602342 77.8975106,86.009163 77.8904195,89.4617086 C77.8904195,90.7099514 77.9329287,91.8333699 78.017947,92.8319641 C78.1313048,94.4875283 77.7983164,95.3153104 77.0189817,95.3153104 C76.6638496,95.2987248 76.3226848,95.18181 76.0412709,94.9802557 C75.7011976,94.7700253 75.531161,93.7188735 75.531161,91.8268002 C75.531161,88.9755509 75.984592,83.167937 76.8914542,74.4039586 L77.4653279,68.372975 C77.4505823,67.4646963 77.6462825,66.564066 78.0392016,65.731956 C78.2754091,65.4841573 78.5997532,65.3232856 78.9531486,65.2786467 C79.3617254,65.3356095 79.7289274,65.5413293 79.9733686,65.8502106 L79.9733686,65.8502106 Z" id="Shape"></path>
                    <path d="M95.4254496,82.8197429 C95.0428671,86.4330774 94.3981448,92.181564 93.4912826,100.065203 C93.2929065,101.668209 93.0449364,103.461737 92.7473723,105.445786 C92.5206567,106.877981 92.4143838,107.718902 92.4285536,107.968551 C92.4072715,108.059468 92.4072715,108.153561 92.4285536,108.244478 C92.805091,108.680324 93.0078027,109.223354 93.0024273,109.781787 C93.0024273,110.438757 92.5348265,110.780382 91.5996249,110.80666 C90.4518774,110.80666 89.8780037,110.432188 89.8780037,109.584696 C89.8780037,108.737205 90.0480404,108.441569 90.3668591,108.362732 C91.1820713,104.335138 91.75682,100.268874 92.0884802,96.1825106 C92.6836085,90.9267515 93.0307667,86.3279622 93.1299548,82.3861428 C88.184722,88.0229445 84.9256861,90.828206 83.3528471,90.8019272 C82.5593427,90.8019272 82.1625905,89.9741451 82.1625905,88.318581 C82.1625905,87.4776595 82.5310033,84.6395496 83.2678288,79.8042511 C83.4945443,78.3063598 83.6149869,77.4917171 83.6291567,77.3603231 C83.7991933,76.7164926 84.0896726,76.3485895 84.5005945,76.2566137 C84.9115164,76.1646379 85.2232503,76.2566137 85.4357961,76.532541 C85.7772475,76.7094212 86.0122847,77.0218119 86.0734336,77.3800322 C86.0734336,77.5639838 85.797124,78.9370509 85.2445049,81.4992335 C84.8288087,83.2253684 84.5517393,84.9777142 84.4155762,86.7418532 C84.4155762,87.2542897 84.528934,87.510508 84.7556495,87.510508 C85.1949108,87.510508 86.2009611,86.7352835 87.7738001,85.1848346 C88.4114376,84.5541435 89.9913615,82.8723005 92.5135719,80.1393058 C92.5135719,80.1393058 92.7686269,79.7451238 93.1724639,79.0355964 C93.576301,78.3260689 93.7463376,78.345778 94.0864109,78.345778 C94.2342954,78.3243462 94.3848727,78.3243462 94.5327572,78.345778 C95.1987341,78.5691477 95.5317225,79.6400087 95.5317225,81.5583607 C95.5272756,81.9805733 95.4917689,82.4020127 95.4254496,82.8197429 L95.4254496,82.8197429 Z" id="Shape"></path>
                    <path d="M139.35867,75.2514498 C139.35867,78.1289779 136.801036,81.4138274 131.685766,85.1059982 C127.460926,87.9877867 123.068799,90.6525174 118.52918,93.0881824 C118.387483,93.0881824 118.182022,93.3706795 117.912797,93.9356736 C117.706538,94.4045835 117.225551,94.719869 116.680031,94.7437465 C116.555268,94.7329244 116.440409,94.6761207 116.361213,94.5860738 C116.25494,94.4875283 116.191176,94.428401 116.148667,94.428401 C115.987606,94.4609537 115.820873,94.4609537 115.659812,94.428401 C115.158176,93.92198 115.017371,93.1923436 115.298484,92.5560368 C115.411841,92.2538306 115.511029,91.9384851 115.596048,91.6100001 C115.236054,87.8750542 115.087068,84.1251992 115.149702,80.3758149 C115.263059,78.2340931 115.511029,74.4762253 115.893612,69.1022115 L112.832952,70.0876664 C112.009581,70.1043304 111.304517,69.5439336 111.196349,68.786866 C111.200512,68.4475983 111.404366,68.1375875 111.727714,67.978793 C112.947972,67.3908148 114.260645,66.9850733 115.617302,66.7765381 C117.434102,66.4124572 119.285018,66.214419 121.143494,66.1852652 C125.517469,66.013974 129.865362,66.8895548 133.768715,68.7277387 C137.467013,70.554115 139.330331,72.7286854 139.35867,75.2514498 L139.35867,75.2514498 Z M136.893139,75.4091225 C136.893139,73.3462371 135.206942,71.5724183 131.834548,70.0876664 C128.898002,68.7764054 125.678016,68.1023985 122.418769,68.1167567 C121.158957,68.075563 119.899267,68.201664 118.677962,68.4912295 C118.026155,73.6155947 117.601063,78.280081 117.402687,82.4846883 C117.310973,85.305143 117.546121,88.1265766 118.104088,90.9004727 C121.122239,89.3500237 123.779062,87.8455626 126.074557,86.3870895 C131.671597,82.8788702 135.100669,79.850239 136.361774,77.3011958 C136.691567,76.7090559 136.873189,76.055603 136.893139,75.3894134 L136.893139,75.4091225 Z" id="Shape"></path>
                    <path d="M148.26434,77.2026503 C148.933914,77.22257 149.56592,77.4942852 150.014958,77.9552844 C150.463995,78.4162836 150.691399,79.0268728 150.644853,79.6465784 C150.644853,83.4701431 144.268479,87.2542897 140.633945,87.9835263 C140.487121,88.3640472 140.40119,88.7624573 140.37889,89.1660721 C140.326221,89.8689795 140.588042,90.5609779 141.102767,91.0792934 C141.617492,91.5976088 142.339688,91.8964913 143.099477,91.9056366 C145.652863,91.6807459 148.02807,90.5935253 149.773415,88.8507266 C150.963672,88.0426536 152.897839,85.5198892 153.556731,85.5593074 C153.928093,85.5586744 154.235626,85.8265628 154.258132,86.1702894 C154.175345,86.6957334 153.931941,87.1881822 153.556731,87.5893444 C152.732116,88.6308868 151.775934,89.5770928 150.708617,90.4077452 C148.56147,92.3532402 145.750865,93.5448621 142.759403,93.7780008 C141.290481,93.8347992 139.866053,93.3035865 138.84856,92.3195276 C138.151217,91.3928526 137.813979,90.2740235 137.892104,89.146363 C138.128663,86.8765892 139.057604,84.7162659 140.570182,82.9182884 C141.760438,81.4795244 145.628772,77.2026503 148.26434,77.2026503 L148.26434,77.2026503 Z M148.391868,79.8042511 C148.403863,79.7226018 148.378565,79.6400151 148.322073,79.5764053 C148.265581,79.5127956 148.183022,79.4739358 148.094304,79.4691965 C145.264767,81.0163444 142.886046,83.1815045 141.16531,85.7761075 C144.015325,84.9610121 146.467109,83.245421 148.094304,80.9276696 C148.248664,80.5676472 148.348794,80.1896196 148.391868,79.8042511 L148.391868,79.8042511 Z" id="Shape"></path>
                    <path d="M167.83981,94.9211284 C167.33268,94.9369073 166.840838,94.7587518 166.479517,94.428401 C166.094952,94.1234773 165.876814,93.6755787 165.884389,93.206437 C165.870071,93.0622085 165.870071,92.9170653 165.884389,92.7728369 C165.898706,92.6286084 165.898706,92.4834652 165.884389,92.3392367 C165.884389,92.3392367 165.884389,91.6297092 165.671843,90.0529815 C165.503165,88.4813422 165.432199,86.9020017 165.459297,85.3227982 C165.572655,81.4466759 165.438042,79.370651 165.05546,79.0947236 C164.672877,78.8187963 163.893543,79.8042511 162.717456,82.0510882 C161.432945,84.2945992 160.304157,86.6118431 159.337977,88.9886903 C158.955395,89.9347269 158.572812,90.9595999 158.232739,92.2406912 C158.161848,92.6761687 157.963337,93.0852276 157.658865,93.4232371 C157.414105,93.5383192 157.146401,93.6054106 156.872446,93.620328 C156.107281,93.620328 155.724698,93.0487642 155.724698,91.9056366 C155.724698,91.6297092 155.767208,90.7230908 155.852226,89.1857812 C155.937244,87.6484717 156.008093,86.0323257 156.064772,84.3373434 C156.10036,82.0370011 156.277771,79.7404276 156.596136,77.4588686 C156.702409,76.8675957 156.999973,76.5719592 157.510083,76.5719592 C158.031412,76.5604553 158.524995,76.789302 158.827867,77.1829412 C158.958492,77.3771469 159.01812,77.6052272 158.997904,77.8333414 C158.997904,78.0304324 158.997904,78.6217053 158.806613,79.6071602 C158.615322,80.592615 158.615322,81.5780698 158.572812,82.3467246 L158.572812,85.1257073 C161.761,78.9896085 164.141513,76.0726621 165.714352,76.3748683 C166.677893,76.5588198 167.294276,77.6165414 167.563501,79.5480329 C167.804837,81.9390124 167.89001,84.3413379 167.818556,86.7418532 C167.818556,90.0792603 167.861065,91.8727881 167.946083,92.1224367 C168.318144,92.7299294 168.556546,93.3998288 168.647484,94.0933463 C168.775012,94.6057829 168.477448,94.9211284 167.83981,94.9211284 L167.83981,94.9211284 Z" id="Shape"></path>
                    <path d="M188.286718,76.729632 C188.286718,77.2420685 187.989154,77.4982868 187.287753,77.4982868 L186.543842,77.4982868 L185.88495,77.4982868 C183.563509,77.553167 181.254982,77.8372679 178.998466,78.345778 C178.449882,82.2218997 178.144719,86.1243117 178.084519,90.0332724 L178.084519,91.9056366 L178.084519,92.3589458 C178.110419,92.5882581 178.110419,92.8194519 178.084519,93.0487642 C178.084519,93.7057341 177.701936,94.01451 176.936771,93.9750918 C176.429213,93.9382261 175.986341,93.6416316 175.789024,93.206437 C175.564587,92.7916954 175.461954,92.3294407 175.49146,91.8662184 C175.49146,90.5522786 175.640242,87.8915505 175.937806,83.8840342 C176.107842,82.7146278 176.327473,81.006506 176.596698,78.759669 C175.930721,78.9173418 174.761719,79.2721055 173.089692,79.8239602 C172.407932,80.1328906 171.760165,80.5025313 171.155525,80.9276696 C170.709179,81.2430152 170.411614,81.3612698 170.241578,81.3021425 C169.391395,81.1050515 168.966303,80.7371484 168.966303,80.1984331 C168.966303,79.6597178 169.830656,79.0027479 171.559362,78.2275234 C172.707109,77.8596202 174.556258,77.3011958 177.106808,76.5522501 C177.305184,75.5142377 177.638172,73.0768794 178.105773,69.2401752 C178.132778,68.9845688 178.132778,68.7271269 178.105773,68.4715204 L178.105773,67.5254838 C178.105773,66.5400289 178.410422,66.0473015 179.01972,66.0473015 C179.841564,66.0473015 180.252486,66.9604897 180.252486,68.786866 C180.252486,69.3781389 180.252486,70.0482482 180.124958,70.7577757 C179.997431,71.4673032 179.678612,73.5170492 179.253521,76.11865 C181.422745,75.727324 183.63612,75.5882882 185.842441,75.704759 C186.357294,75.7042693 186.870592,75.7571553 187.372771,75.8624318 C187.953729,76.0069651 188.258378,76.2960319 188.286718,76.729632 L188.286718,76.729632 Z" id="Shape"></path>
                    <path d="M191.985015,66.3035198 C191.786639,66.6845623 191.418226,67.4729262 190.879777,68.6686114 C190.680528,69.1916594 190.545072,69.7337526 190.47594,70.2847573 C190.47594,70.7183575 190.369667,70.9877151 190.157121,71.0928303 C189.753284,71.5461395 189.349447,71.6249759 189.009374,71.3293395 C188.743241,71.0028411 188.628494,70.5914161 188.690555,70.1862119 C188.712835,69.2940112 188.952627,68.4180615 189.391956,67.6240293 L190.135866,65.6531196 C190.225677,65.2735071 190.588189,65.002945 191.007304,65.0027194 C191.72996,65.0815558 191.985015,65.4954468 191.985015,66.3035198 L191.985015,66.3035198 Z M191.985015,79.0750145 C191.404057,83.9891494 191.071068,87.0834776 190.98605,88.3579992 C190.913184,89.1192267 190.985126,89.886406 191.198596,90.6245453 C191.322725,90.9259553 191.422194,91.2356071 191.49616,91.5508729 C191.486104,91.7849688 191.443235,92.0168558 191.368632,92.2406912 C191.262359,92.6151641 190.922286,92.8122551 190.369667,92.8122551 C190.002552,92.8042252 189.649684,92.6789109 189.370702,92.4574913 C189.044798,92.2209821 188.881846,91.3997698 188.881846,89.9938542 C188.881846,89.9938542 189.030628,87.1557443 189.285683,81.7357426 C189.391956,79.9422148 189.45572,78.9764691 189.498229,78.7990872 C189.668266,77.8727596 190.029594,77.4194504 190.603467,77.3800322 C191.001016,77.3538486 191.385559,77.5172818 191.623687,77.8136323 C191.925314,78.1704757 192.055919,78.6264128 191.985015,79.0750145 L191.985015,79.0750145 Z" id="Shape"></path>
                    <path d="M208.053479,74.8178496 C208.166837,75.3828437 207.876358,75.6653408 207.182041,75.6653408 C206.847592,75.6574052 206.519887,75.5763714 206.225585,75.4288316 C206.034829,75.320403 205.826807,75.2405838 205.609202,75.1923225 C204.919073,75.2552426 204.269884,75.5250977 203.760053,75.9609772 L200.486848,78.759669 C199.537766,79.5588729 198.777838,80.5319899 198.255117,81.617488 C197.819505,82.3515114 197.620323,83.1860765 197.681243,84.0219979 C197.856364,85.0384086 198.543065,85.9167104 199.530392,86.3870895 L203.079907,87.6484717 C205.006989,88.3317204 206.105142,88.7521811 206.374367,88.9098539 C207.27333,89.391287 207.872711,90.2396107 207.989715,91.1961091 C208.074734,91.8793578 206.919901,92.9108005 204.525218,94.2904373 C203.337514,95.1268832 201.998902,95.7608689 200.571866,96.1628015 C199.572901,96.1628015 199.084045,95.7883287 199.084045,95.1379285 C199.090406,94.924812 199.181205,94.7213362 199.3391,94.5663647 L202.633561,93.1078915 C204.659831,92.1618549 205.637542,91.439188 205.566693,90.9398909 C205.495844,90.4405937 204.624406,89.9610057 202.952379,89.5011268 C201.362102,89.0938253 199.817616,88.5460324 198.340135,87.8652717 C196.815184,87.2020855 195.758281,85.8656503 195.53453,84.3176343 C195.433049,82.0256684 196.391998,79.8026154 198.170098,78.2078143 C199.807531,76.6138992 201.554025,75.1194813 203.398726,73.7338493 C204.109668,73.116524 205.156634,72.9677665 206.034294,73.3593765 L207.22455,74.0097767 C207.755915,74.3842495 208.032224,74.6404678 208.053479,74.8178496 L208.053479,74.8178496 Z" id="Shape"></path>
                    <path d="M227.097584,76.729632 C227.097584,77.2420685 226.80002,77.4982868 226.098619,77.4982868 L225.354709,77.4982868 L224.695817,77.4982868 C222.374401,77.5534654 220.065908,77.837562 217.809332,78.345778 C217.26051,82.2218772 216.955345,86.1243021 216.895385,90.0332724 L216.895385,91.9056366 L216.895385,92.3589458 C216.922935,92.5881757 216.922935,92.8195343 216.895385,93.0487642 C216.895385,93.7057341 216.512803,94.01451 215.747638,93.9750918 C215.24008,93.9382261 214.797208,93.6416316 214.59989,93.206437 C214.372522,92.7926435 214.269723,92.3296435 214.302326,91.8662184 C214.302326,90.5522786 214.451108,87.8915505 214.748672,83.8840342 C214.918709,82.7146278 215.13834,81.006506 215.407564,78.759669 C214.741587,78.9173418 213.572585,79.2721055 211.900558,79.8239602 C211.218406,80.1322286 210.570571,80.5019079 209.966391,80.9276696 C209.520045,81.2430152 209.222481,81.3612698 209.052444,81.3021425 C208.202261,81.1050515 207.777169,80.7371484 207.777169,80.1984331 C207.777169,79.6597178 208.641522,79.0027479 210.370228,78.2275234 C211.333769,77.8727596 213.119154,77.3274746 215.726383,76.5916683 C215.924759,75.5536559 216.257748,73.1162976 216.725348,69.2795934 C216.756057,69.0241663 216.756057,68.7663657 216.725348,68.5109386 L216.725348,67.564902 C216.725348,66.5794471 217.029997,66.0867197 217.639295,66.0867197 C218.248593,66.0867197 218.659515,66.9999079 218.872061,68.8262842 C218.872061,69.4175571 218.872061,70.0876664 218.744534,70.7971939 C218.617006,71.5067214 218.298187,73.5564674 217.873096,76.1580682 C220.012758,75.7598439 222.197181,75.6075938 224.376998,75.704759 C224.891851,75.7042693 225.405148,75.7571553 225.907328,75.8624318 C226.778766,76.0201045 227.07633,76.2960319 227.097584,76.729632 L227.097584,76.729632 Z" id="Shape"></path>
                    <path d="M243.803686,76.8084684 C244.186268,76.926723 244.377559,77.2617776 244.377559,77.7939232 C244.377559,78.3260689 244.058741,78.562578 243.421103,78.7202508 C243.096619,78.761971 242.766008,78.7210948 242.464647,78.6019962 C242.158205,78.4924589 241.835822,78.4260274 241.508191,78.4049053 C241.129983,78.4203826 240.763097,78.5292494 240.445462,78.7202508 C236.883008,81.0269718 233.914484,84.0353954 231.752338,87.5302171 C231.083134,88.5648047 230.696441,89.7352495 230.625845,90.9398909 C230.601428,91.7267117 230.472939,92.5077776 230.243263,93.2655643 C230.026944,93.5304683 229.687616,93.684137 229.329315,93.6794553 C228.907187,93.6852869 228.503411,93.5196798 228.224077,93.2261461 C227.97547,92.9219985 227.861436,92.5413263 227.905259,92.1618549 C227.905259,91.8333699 227.990277,91.0581454 228.160313,89.8361814 C228.33035,88.6142174 228.464962,87.379114 228.564151,86.1308712 L228.564151,83.5292704 C228.605872,81.9746729 228.456121,80.4207387 228.117804,78.8976327 C227.82024,77.7545051 227.671458,77.2814867 227.671458,77.4785777 C227.652479,77.4140593 227.652479,77.3460051 227.671458,77.2814867 C227.888994,76.8740395 228.329282,76.6094184 228.819206,76.5916683 C229.164053,76.6044634 229.490764,76.738327 229.733153,76.9661412 C230.423265,78.1038808 230.713059,79.4130386 230.562081,80.7108696 L230.562081,85.3425073 C231.135955,84.6329799 231.709829,83.9628706 232.304957,83.3715977 C233.466628,82.0523764 234.715994,80.8017004 236.045763,79.6268693 C237.391887,78.4574628 238.213731,77.8004929 238.511295,77.6559596 C239.440687,77.0141164 240.562223,76.6559755 241.720737,76.6310865 C242.4209,76.5761339 243.126028,76.6361819 243.803686,76.8084684 L243.803686,76.8084684 Z" id="Shape"></path>
                    <path d="M257.385364,82.8197429 C257.002781,86.4330774 256.358059,92.181564 255.451197,100.065203 C255.26699,101.668209 255.01902,103.461737 254.707286,105.445786 C254.49474,106.877981 254.388468,107.718902 254.388468,107.968551 C254.368427,108.059588 254.368427,108.153441 254.388468,108.244478 C254.765005,108.680324 254.967717,109.223354 254.962341,109.781787 C254.962341,110.451897 254.49474,110.786951 253.559539,110.80666 C252.624337,110.82637 251.837918,110.432188 251.837918,109.584696 C251.837918,108.737205 252.007954,108.441569 252.326773,108.362732 C253.10557,104.339801 253.644836,100.280149 253.942121,96.2022197 C254.53725,90.9464605 254.877323,86.3476713 254.962341,82.4058519 C250.045448,88.0163748 246.814752,90.8084969 245.270252,90.7822181 C244.476748,90.7822181 244.07291,89.954436 244.058741,88.2988719 C244.058741,87.4579504 244.427153,84.6198405 245.163979,79.784542 C245.376525,78.2866507 245.504052,77.4588686 245.525307,77.340614 C245.695344,76.6967835 245.985823,76.3288804 246.396745,76.2369046 C246.807667,76.1449288 247.119401,76.2369046 247.331946,76.512832 C247.675617,76.6874283 247.911513,77.0009595 247.969584,77.3603231 C247.969584,77.5442747 247.693274,78.9173418 247.140655,81.4795244 C246.726252,83.2058806 246.449197,84.9581374 246.311726,86.7221441 C246.311726,87.2345806 246.417999,87.4907989 246.6518,87.4907989 C246.8856,87.4907989 248.097111,86.7221441 249.648696,85.1651255 C250.286333,84.5344344 251.866257,82.8525914 254.388468,80.1195967 C254.388468,80.1195967 254.643523,79.7254147 255.04736,79.0158873 C255.451197,78.3063598 255.621233,78.3260689 255.961307,78.3260689 C256.109191,78.3046371 256.259768,78.3046371 256.407653,78.3260689 C257.07363,78.5494386 257.406618,79.6202996 257.406618,81.5386517 C257.431428,81.9656252 257.424326,82.3936792 257.385364,82.8197429 L257.385364,82.8197429 Z" id="Shape"></path>
                </g>
            </g>
        </g>
    </g>
</svg>