<?xml version="1.0" encoding="UTF-8"?>
<svg width="184px" height="111px" viewBox="0 0 184 111" version="1.1" xmlns="http://www.w3.org/2000/svg" xmlns:xlink="http://www.w3.org/1999/xlink">
    <!-- Generator: Sketch 40.3 (33839) - http://www.bohemiancoding.com/sketch -->
    <title>LOGO</title>
    <desc>Created with Sketch.</desc>
    <defs></defs>
    <g id="Page-1" stroke="none" stroke-width="1" fill="none" fill-rule="evenodd">
        <g id="HEATH-HOMEPAGE" transform="translate(-21.000000, -19.000000)">
            <g id="HEADER" transform="translate(22.000000, 19.000000)">
                <g id="LOGO">
                    <g id="heath-logo">
                        <g id="Layer_1">
                            <polygon id="Shape" fill="#71A087" points="43.3575808 48.0307127 43.3575808 30.074903 23.1567333 30.074903 23.1567333 48.0307127 20.4738083 48.0307127 20.4738083 10.3939555 23.1136917 10.3939555 23.1136917 27.6453339 43.3575808 27.6453339 43.3575808 10.3939555 45.9974642 10.3939555 45.9974642 48.0307127"></polygon>
                            <path d="M54.4766552,35.0634266 C54.7224695,41.3793987 59.890323,46.3802134 66.1983117,46.4062079 C70.4074912,46.50356 74.3368543,44.3008784 76.4565546,40.6557484 L79.1968684,40.6557484 C76.2863583,46.6775923 69.6145962,49.8913525 63.1033735,48.4079182 C56.5921508,46.9244839 51.963073,41.1360839 51.9372021,34.4452522 C51.9551421,29.3091489 54.706279,24.572784 59.154286,22.0203003 C63.602293,19.4678166 69.0714121,19.4869971 73.501479,22.0706168 C77.9315458,24.6542364 80.6495279,29.4097819 80.6315877,34.5458852 L80.6315877,35.106555 L54.4766552,35.0634266 Z M66.2557005,22.1248928 C60.2007941,22.0989827 55.1100874,26.6718475 54.4766552,32.7057382 L77.977357,32.7057382 C77.2632489,26.7476725 72.2442757,22.2479492 66.2557005,22.1967735 L66.2557005,22.1248928 Z" id="Shape" fill="#71A087"></path>
                            <path d="M110.818081,48.0307127 L110.818081,42.2802532 L110.717651,42.2802532 C108.267051,46.3803241 103.807295,48.8452776 99.039036,48.735144 C91.1153002,48.735144 84.6918432,42.298723 84.6918432,34.3589953 C84.6918432,26.4192676 91.1153002,19.9828466 99.039036,19.9828466 C103.808326,19.9113941 108.247461,22.4155064 110.660262,26.5383704 L110.760693,26.5383704 L110.760693,21.0754339 L113.300146,21.0754339 L113.300146,48.0307127 L110.818081,48.0307127 Z M99.039036,22.1536451 C95.8008303,22.0803412 92.6757166,23.3480421 90.4003576,25.6579211 C88.1249986,27.9678001 86.9007111,31.115486 87.0160885,34.3589953 C87.0160885,40.9886679 92.3796751,46.3630794 98.9959944,46.3630794 C105.612314,46.3630794 110.9759,40.9886679 110.9759,34.3589953 C111.041577,31.1510682 109.81358,28.052121 107.569668,25.7630946 C105.325756,23.4740683 102.255512,22.1883577 99.0533832,22.1967735 L99.039036,22.1536451 Z" id="Shape" fill="#71A087"></path>
                            <polygon id="Shape" fill="#71A087" points="125.853939 22.915581 125.853939 48.0307127 123.357528 48.0307127 123.357528 22.915581 117.41779 22.915581 117.41779 20.6729018 123.314486 20.6729018 123.314486 10.3939555 125.796551 10.3939555 125.796551 20.6153972 132.59712 20.6153972 132.59712 22.9012048"></polygon>
                            <path d="M158.737705,48.0307127 L158.737705,33.2807842 C158.737705,29.111701 157.518194,26.3658566 155.739142,24.655095 C153.869457,22.9958587 151.434485,22.1207939 148.938573,22.2111497 C142.597113,22.2111497 139.13944,26.5239943 139.13944,32.590729 L139.13944,48.0307127 L136.657376,48.0307127 L136.657376,8.36691852 L139.13944,8.36691852 L139.13944,25.043251 L139.23987,25.043251 C140.67459,22.239902 144.419207,19.9109659 148.881184,19.9540943 C152.036889,19.8102556 155.124469,20.9034025 157.489499,23.0018379 C159.828092,25.143884 161.191075,28.5510312 161.191075,33.2232796 L161.191075,48.0307127 L158.737705,48.0307127 Z" id="Shape" fill="#71A087"></path>
                            <path d="M24.24712,55.1469063 C24.4966932,55.2664125 24.6576797,55.5167233 24.6631886,55.793833 C24.6631886,56.1101082 24.4623279,56.3401266 24.0749537,56.4838881 C23.6311035,56.5737694 23.1791246,56.6171313 22.7263175,56.6132734 C21.9859235,56.6390114 21.252381,56.764739 20.5455442,56.9870533 L16.7865797,58.2090259 C14.9310094,58.8607447 12.9367496,59.670601 10.8038003,60.6385951 C10.8038003,61.309482 10.6459812,62.5841672 10.330343,64.4626506 C10.2729542,64.8555987 10.1725238,65.5408618 10.0290519,66.5184399 L11.7794094,65.6846232 C12.9008652,65.1583302 14.0617597,64.7209145 15.2514301,64.3763937 C16.6769672,63.9210346 18.1500757,63.6316068 19.6416711,63.5138248 C19.8352164,63.4994743 20.0289347,63.5392916 20.2012116,63.628834 C20.3226166,63.7189694 20.3879619,63.8662931 20.3733779,64.01699 C20.383678,64.4715217 20.070757,64.8694923 19.6273239,64.9658158 C19.2160377,64.9658158 18.2595582,65.1335375 16.7578853,65.468981 C14.2594492,66.1193152 11.8944709,67.2044375 9.77080244,68.6748622 C9.56994174,70.6971071 9.46951139,72.2976516 9.46951139,73.4764958 L9.46951139,74.4253216 C9.46951139,74.6697162 9.46951139,74.7128446 9.58428893,74.9572391 C9.63097894,75.1311464 9.65982295,75.3093768 9.67037209,75.4891566 C9.67037209,76.006698 9.36429864,76.2654687 8.75215175,76.2654687 C8.50336459,76.2806494 8.25936344,76.1922156 8.07783369,76.0210741 C7.9916739,75.7620495 7.96231125,75.487445 7.99175053,75.2160098 C7.99175053,74.8038935 8.03000971,73.8742359 8.10652807,72.427037 C8.18304643,70.979838 8.22130561,69.9399632 8.22130561,69.3074127 C7.8663516,69.1799961 7.62289128,68.850945 7.60437632,68.4735961 C7.58803055,68.2578606 7.66062381,68.044837 7.80523702,67.884174 C7.99043477,67.6770918 8.18680686,67.4803234 8.39347193,67.2947519 C8.46999029,66.623865 8.56085584,65.6223266 8.66606859,64.2901368 C8.76171654,63.1208767 8.83345251,62.1624668 8.88127648,61.4149071 C7.75702686,61.9111468 6.58361255,62.2870117 5.38056144,62.5362467 C4.955901,62.4981409 4.63824643,62.1289179 4.6632018,61.7024301 C4.65975959,61.4930278 4.71979143,61.2875051 4.83536811,61.113008 C5.34825027,60.8360705 5.8995194,60.6374069 6.47094809,60.5235859 C7.3039688,60.3276654 8.12346967,60.0779575 8.92431806,59.7760261 C8.92431806,58.8655367 9.11083157,58.3288272 9.48385858,58.1658975 C9.58368305,58.1502648 9.68532516,58.1502648 9.78514963,58.1658975 C10.3016486,58.1658975 10.607722,58.501341 10.70337,59.1722279 C13.2093463,58.2617385 16.1839976,57.2218637 19.6273239,56.0526036 C20.9847396,55.6125381 22.3838113,55.3138525 23.802357,55.1612824 C23.9447168,55.1061998 24.1015133,55.1011316 24.24712,55.1469063 L24.24712,55.1469063 Z" id="Shape" fill="#6D6E70"></path>
                            <path d="M27.9486957,75.7479273 C27.8377566,75.8532686 27.6817758,75.8963846 27.5326271,75.8629365 C27.3531004,75.8543425 27.1836766,75.7771762 27.0591698,75.6472943 C26.9141374,75.4534019 26.8203678,75.2259225 26.7865731,74.9859914 C25.7190373,75.8166611 24.432371,76.3163754 23.0849974,76.4236063 C22.4862975,76.4540712 21.9026409,76.2295365 21.4781118,75.8054319 C21.0763832,75.3740931 20.8644338,74.7991208 20.8898769,74.2096794 C20.9165265,73.1867029 21.2796726,72.2011973 21.9228747,71.4063304 C22.464335,70.5783796 23.3191847,70.0073296 24.2901615,69.8249541 C25.6579273,69.6428562 26.6670132,70.5150092 27.3174192,72.4414131 C27.6238779,71.628746 27.7747647,70.765492 27.7621822,69.8968348 C27.7680186,68.6398358 27.4518636,67.4023626 26.8439619,66.3027976 C26.5024963,65.5866821 25.770455,65.1409284 24.9788268,65.1670819 C24.4743142,65.1775533 23.9806904,65.3160469 23.5441075,65.569614 C23.0754326,65.8379688 22.8219655,66.0823634 22.7837063,66.3027976 C22.7837063,66.3890545 22.7837063,66.4465591 22.5541512,66.4465591 C22.0567819,66.4465591 21.7889676,66.2309169 21.7507084,65.7996324 C21.7124492,65.368348 22.0663467,64.9274794 22.8124007,64.4770268 C23.5326993,64.0623335 24.3489599,63.8442247 25.1796875,63.8444762 C25.7272659,63.8215599 26.2699407,63.9562553 26.7435315,64.2326322 C28.3791115,65.2677149 29.1969015,67.1366143 29.1969015,69.8393302 C29.1827224,71.1948164 28.994667,72.5428503 28.637361,73.8502757 C28.5351091,74.5221857 28.30105,75.1671471 27.9486957,75.7479273 L27.9486957,75.7479273 Z M26.3274629,73.5196243 C25.7918344,71.8424069 25.2179467,71.0613028 24.6057998,71.176312 C23.8394155,71.3009394 23.156144,71.7314394 22.7119703,72.3695324 C22.3504083,72.8611077 22.15443,73.4552645 22.1524298,74.0659179 C22.1524298,74.4972024 22.238513,74.755973 22.4250265,74.8709822 C22.6295225,74.9899392 22.8629666,75.0496622 23.0993445,75.043496 C24.3096534,74.8921762 25.4403729,74.3584066 26.3274629,73.5196243 L26.3274629,73.5196243 Z" id="Shape" fill="#6D6E70"></path>
                            <path d="M45.6674788,75.3022667 C45.4084416,75.3175788 45.165427,75.1760061 45.0505495,74.942863 C44.7710955,73.9478701 44.6691006,72.9112624 44.7492585,71.8807433 C44.7492585,70.6731468 44.7779529,69.4655503 44.8353416,68.2579538 C44.8353416,66.341134 44.6105689,65.2629229 44.1610236,65.0233204 C44.0271164,64.9466476 43.5919183,65.5025254 42.855429,66.6909536 C42.0175062,68.0671799 41.2929637,69.5095734 40.6890029,71.0037982 C40.1189875,72.4482924 39.6398099,73.9271379 39.2542836,75.431652 C39.0151638,76.3900619 38.7377847,76.8165544 38.4221465,76.7111293 C37.9692857,76.6287096 37.6148742,76.2735828 37.5326205,75.819808 C37.5326205,75.819808 37.5326205,74.7991015 37.417843,72.9445783 C37.2552414,68.3154584 37.0495983,65.9194337 36.8009137,65.756504 C36.552229,65.5935743 35.9305173,66.436975 34.9357786,68.2867061 C34.0731392,70.1566946 33.4651194,72.1343296 33.1280323,74.1665509 L33.1280323,75.4604043 C33.1280323,76.0210741 33.0419492,76.3661017 32.8697828,76.4811109 C32.6596674,76.6110657 32.4121599,76.6667408 32.1667704,76.6392485 C31.9270087,76.6600635 31.6919502,76.5637091 31.5354939,76.3804778 C31.3954642,75.9993283 31.341563,75.5917982 31.3776748,75.1872575 C31.3776748,74.554707 31.5259291,72.6666394 31.8224378,69.5230549 C31.8692505,68.8721802 31.8692505,68.2187734 31.8224378,67.5678987 C31.765049,66.6094888 31.7363546,66.1590361 31.7363546,66.2165407 C31.7363546,65.6031584 32.0232985,65.2964672 32.5971862,65.2964672 C32.7973245,65.285726 32.9918595,65.3647507 33.1280323,65.5121095 C33.5288071,66.0236073 33.7640786,66.6455764 33.8023504,67.2947519 C35.1031625,64.5824518 36.059642,63.2263018 36.6717889,63.2263018 C37.2743376,63.2723377 37.7952036,63.6651786 38.0060779,64.2326322 C38.3025865,64.6830849 38.5417064,67.107862 38.7234375,71.5069634 C39.402538,69.9447553 40.0481616,68.6029814 40.6603085,67.4816418 C42.1237222,64.7597577 43.2619328,63.3221428 44.0749404,63.1687972 C44.3714491,63.1687972 44.7062169,63.3508951 45.0792439,63.7150909 C45.4038186,64.0294928 45.6453864,64.4197453 45.7822564,64.8508066 C46.0191189,66.3287438 46.1199731,67.8253608 46.0835474,69.3217889 L46.0835474,73.1458444 C46.1014785,73.3904759 46.1496716,73.6319276 46.2270193,73.8646518 C46.3042242,74.097414 46.3524137,74.3388477 46.3704913,74.5834593 C46.3991856,75.0626642 46.1648482,75.3022667 45.6674788,75.3022667 L45.6674788,75.3022667 Z" id="Shape" fill="#6D6E70"></path>
                            <path d="M51.5354807,56.3976312 C51.4015735,56.6755701 51.1528889,57.250616 50.7894266,58.122769 C50.6546979,58.5042211 50.5632564,58.8996596 50.51683,59.3016132 C50.51683,59.6178885 50.4403116,59.8143625 50.2872749,59.8910353 C50.0146782,60.2216867 49.7564288,60.2791913 49.5125265,60.0635491 C49.3278021,59.827556 49.2451254,59.5272482 49.2829714,59.2297325 C49.3009207,58.5793482 49.4626236,57.9410511 49.7564288,57.3608332 L50.2585805,55.9232183 C50.319204,55.6463225 50.5639057,55.44897 50.8468154,55.4488054 C51.3633144,55.4871418 51.5928694,55.8034171 51.5354807,56.3976312 L51.5354807,56.3976312 Z M51.5354807,65.7133755 C51.1433241,69.2978286 50.9185514,71.5548839 50.8611626,72.4845416 C50.811977,73.0397938 50.8605393,73.5993873 51.0046345,74.1377987 C51.0883212,74.357687 51.1554624,74.5835445 51.2054952,74.8134776 C51.1982314,74.9841807 51.1693044,75.1532623 51.1194121,75.3166428 C51.0428937,75.5945817 50.818121,75.7335512 50.445094,75.7335512 C50.1972854,75.727694 49.9590939,75.6362877 49.770776,75.4747805 C49.5507857,75.3022667 49.4407905,74.7032605 49.4407905,73.6777619 C49.4407905,73.6777619 49.5268737,71.6075965 49.7133872,67.6541556 C49.7899055,66.3507181 49.8377295,65.6367027 49.8568591,65.5121095 C49.9716367,64.8412225 50.2203213,64.4961949 50.6029131,64.4770268 C50.871265,64.457928 51.1308377,64.5771389 51.2915784,64.793302 C51.4750555,65.062231 51.5423166,65.3940306 51.4780919,65.7133755 L51.5354807,65.7133755 Z" id="Shape" fill="#6D6E70"></path>
                            <path d="M58.3217029,56.0669798 C58.4864555,56.2798746 58.5680725,56.5456651 58.5512579,56.8145395 C58.5512579,57.1116466 58.4412628,57.9933837 58.2212725,59.4597509 C57.9056343,61.6545096 57.6282552,63.7534273 57.3891353,65.756504 C57.0785774,68.2555537 56.9204645,70.7712607 56.915678,73.2896059 C56.915678,74.2000953 56.9443724,75.0195358 57.0017611,75.7479273 C57.0782795,76.9555238 56.8535068,77.559322 56.3274431,77.559322 C56.087723,77.5472242 55.8574312,77.4619446 55.6674722,77.3149275 C55.4379171,77.1615819 55.3231396,76.394854 55.3231396,75.0147437 C55.3231396,72.9349942 55.629213,68.6988224 56.2413599,62.3062283 L56.6287341,57.9071268 C56.6187806,57.244613 56.7508815,56.587678 57.0161083,55.9807229 C57.1755522,55.7999743 57.3944898,55.6826318 57.6330376,55.6500715 C57.9088336,55.6916211 58.1567011,55.8416765 58.3217029,56.0669798 L58.3217029,56.0669798 Z" id="Shape" fill="#6D6E70"></path>
                            <path d="M68.752112,68.4448438 C68.4938626,71.080471 68.0586644,75.2735144 67.4465175,81.0239739 C67.3126103,82.193234 67.1452264,83.5014635 66.9443657,84.9486624 C66.791329,85.9933292 66.719593,86.6067116 66.7291578,86.7888095 C66.7147921,86.855126 66.7147921,86.923759 66.7291578,86.9900756 C66.9833268,87.3079889 67.1201605,87.7040841 67.116532,88.1114152 C67.116532,88.5906201 66.8008938,88.8398067 66.1696173,88.8589749 C65.3948689,88.8589749 65.0074947,88.5858281 65.0074947,87.9676537 C65.0074947,87.3494793 65.1222722,87.133837 65.3374801,87.0763324 C65.8877618,84.1385372 66.2757266,81.1725355 66.4996028,78.1918726 C66.9013242,74.3582329 67.1356616,71.0037982 67.2026152,68.1285685 C63.8645017,72.240147 61.6645988,74.2863522 60.6029065,74.267184 C60.067278,74.267184 59.7994637,73.6633857 59.7994637,72.4557893 C59.7994637,71.8424069 60.0481484,69.7722415 60.5455177,66.245293 C60.6985545,65.1527057 60.7798552,64.5584916 60.78942,64.4626506 C60.9041976,63.9930297 61.1002759,63.724675 61.3776549,63.6575863 C61.655034,63.5904976 61.8654595,63.6575863 62.0089314,63.8588524 C62.2394167,63.9878718 62.3980707,64.2157348 62.4393472,64.4770268 C62.4393472,64.6112041 62.2528337,65.6127425 61.8798067,67.4816418 C61.5992049,68.7407138 61.4121785,70.0189045 61.3202662,71.3056974 C61.3202662,71.6794772 61.3967845,71.8663672 61.5498212,71.8663672 C61.8463299,71.8663672 62.5254303,71.3009053 63.5871226,70.1699816 C64.0175384,69.7099449 65.0840131,68.4831802 66.7865466,66.4896876 C66.7865466,66.4896876 66.9587129,66.2021646 67.2313096,65.6846232 C67.5039063,65.1670819 67.6186838,65.181458 67.8482389,65.181458 C67.9480633,65.1658254 68.0497055,65.1658254 68.1495299,65.181458 C68.5990753,65.3443877 68.823848,66.1254918 68.823848,67.5247703 C68.8208463,67.8327393 68.7968786,68.1401442 68.752112,68.4448438 L68.752112,68.4448438 Z" id="Shape" fill="#6D6E70"></path>
                            <path d="M98.4077595,62.9244027 C98.4077595,65.0233204 96.681314,67.4193452 93.2284229,70.112477 C90.3765859,72.2145023 87.4118284,74.158202 84.3475106,75.9348172 C84.2518626,75.9348172 84.1131731,76.1408754 83.931442,76.5529916 C83.7922139,76.8950225 83.4675393,77.124997 83.0993048,77.1424137 C83.0150876,77.1345199 82.937556,77.0930863 82.8840969,77.0274045 C82.812361,76.9555238 82.7693194,76.9123953 82.740625,76.9123953 C82.6319061,76.9361399 82.5193584,76.9361399 82.4106396,76.9123953 C82.0720271,76.5430033 81.9769815,76.0107942 82.1667373,75.5466612 C82.2432556,75.3262269 82.3102092,75.0962086 82.367598,74.8566061 C82.1245962,72.1322733 82.0240283,69.3970656 82.0663069,66.6622013 C82.1428253,65.0999932 82.3102092,62.3589408 82.5684587,58.4390443 L80.5024629,59.1578517 C79.9466738,59.1700068 79.4707443,58.7612439 79.3977291,58.2090259 C79.4005391,57.9615583 79.5381438,57.7354312 79.7564089,57.6196038 C80.5801034,57.1907225 81.4661791,56.8947679 82.3819452,56.7426588 C83.6083148,56.477092 84.8577139,56.3326396 86.1122153,56.3113743 C89.0647206,56.1864316 91.9996198,56.8250951 94.6344478,58.1658975 C97.1308594,59.4980873 98.3886299,61.0842557 98.4077595,62.9244027 L98.4077595,62.9244027 Z M96.7434852,63.0394119 C96.7434852,61.5347083 95.6052745,60.2408549 93.3288533,59.1578517 C91.3466362,58.2013958 89.1730928,57.7097637 86.9730469,57.7202369 C86.1226532,57.6901895 85.2723418,57.7821697 84.4479409,57.9933837 C84.0079604,61.7311824 83.7210165,65.1335375 83.5871094,68.2004493 C83.5252009,70.2577367 83.6839298,72.315738 84.0605667,74.3390647 C86.0978681,73.208141 87.8912672,72.1107617 89.440764,71.0469267 C93.2188581,68.4879722 95.5335386,66.2788374 96.3848053,64.4195222 C96.6074206,63.9876052 96.7300184,63.5109657 96.7434852,63.0250357 L96.7434852,63.0394119 Z" id="Shape" fill="#6D6E70"></path>
                            <path d="M104.419233,64.3476414 C104.871207,64.3621712 105.297821,64.5603648 105.600929,64.8966254 C105.904036,65.2328861 106.057538,65.6782601 106.026119,66.1302838 C106.026119,68.9192567 101.721961,71.6794772 99.2685911,72.2113947 C99.1694821,72.4889531 99.1114778,72.7795602 99.0964248,73.0739637 C99.0608722,73.5866761 99.2376057,74.0914315 99.5850535,74.4694996 C99.9325013,74.8475676 100.419995,75.0655776 100.932865,75.0722483 C102.656443,74.9082092 104.259747,74.1151721 105.437884,72.8439453 C106.241327,72.2545232 107.546921,70.4143761 107.991684,70.4431284 C108.24236,70.4426667 108.44995,70.6380691 108.465142,70.8887891 C108.409259,71.2720568 108.244957,71.6312573 107.991684,71.9238718 C107.435055,72.6835904 106.789617,73.3737691 106.06916,73.979661 C104.619801,75.398738 102.722596,76.2679271 100.70331,76.4379824 C99.7117632,76.4794122 98.750251,76.0919366 98.0634269,75.3741474 C97.5927087,74.698215 97.3650677,73.8821222 97.4178032,73.0595875 C97.5774845,71.4039761 98.2045349,69.8281997 99.2255495,68.5167245 C100.028992,67.4672657 102.640181,64.3476414 104.419233,64.3476414 L104.419233,64.3476414 Z M104.505316,66.245293 C104.513414,66.1857367 104.496337,66.1254965 104.458204,66.0790985 C104.420071,66.0327004 104.364342,66.0043555 104.304456,66.0008985 C102.394472,67.1294144 100.788796,68.7087188 99.6272709,70.6012661 C101.551078,70.0067217 103.206073,68.7553406 104.304456,67.0647335 C104.408652,66.802127 104.476241,66.5263874 104.505316,66.245293 L104.505316,66.245293 Z" id="Shape" fill="#6D6E70"></path>
                            <path d="M117.632998,77.2717991 C117.290676,77.2833085 116.958675,77.1533588 116.714778,76.9123953 C116.45519,76.6899788 116.307943,76.3632741 116.313056,76.0210741 C116.303391,75.9158714 116.303391,75.8100015 116.313056,75.7047989 C116.322721,75.5995962 116.322721,75.4937263 116.313056,75.3885236 C116.313056,75.3885236 116.313056,74.8709822 116.169584,73.7208903 C116.055724,72.5745101 116.007821,71.4225124 116.026112,70.2706147 C116.102631,67.4433054 116.011765,65.9290178 115.753516,65.7277517 C115.495266,65.5264856 114.969202,66.245293 114.175324,67.884174 C113.308258,69.5206289 112.546308,71.2108658 111.894121,72.9445783 C111.635871,73.6346334 111.377622,74.3821932 111.148067,75.3166428 C111.100214,75.6342875 110.966216,75.9326619 110.760693,76.1792118 C110.595475,76.2631546 110.414771,76.3120922 110.229846,76.3229732 C109.713347,76.3229732 109.455098,75.9060649 109.455098,75.0722483 C109.455098,74.8709822 109.483792,74.2096794 109.541181,73.0883398 C109.59857,71.9670002 109.646394,70.788156 109.684653,69.5518072 C109.708676,67.8738986 109.828431,66.1987391 110.043333,64.5345313 C110.115069,64.1032469 110.31593,63.8876047 110.660262,63.8876047 C111.012167,63.8792135 111.345344,64.0461382 111.549788,64.3332653 C111.637962,64.4749221 111.678212,64.6412878 111.664566,64.8076782 C111.664566,64.9514397 111.664566,65.3827241 111.535441,66.1015315 C111.406316,66.820339 111.406316,67.5391464 111.377622,68.0998162 L111.377622,70.1268532 C113.529701,65.6510789 115.136586,63.5234089 116.198279,63.7438432 C116.848685,63.8780206 117.264753,64.6495405 117.446484,66.0584031 C117.60939,67.802424 117.666884,69.5547209 117.618651,71.3056974 C117.618651,73.7400585 117.647345,75.0482881 117.704734,75.230386 C117.955881,75.6735014 118.116806,76.1621374 118.178191,76.6680008 C118.264274,77.0417807 118.063414,77.2717991 117.632998,77.2717991 L117.632998,77.2717991 Z" id="Shape" fill="#6D6E70"></path>
                            <path d="M131.434997,64.0026138 C131.434997,64.3763937 131.234137,64.5632836 130.760679,64.5632836 L130.258528,64.5632836 L129.813765,64.5632836 C128.246753,64.6033142 126.68846,64.8105422 125.165274,65.181458 C124.794971,68.0087668 124.588981,70.8552521 124.548345,73.7065142 L124.548345,75.0722483 L124.548345,75.4028997 C124.565828,75.570164 124.565828,75.7388007 124.548345,75.9060649 C124.548345,76.3852699 124.290095,76.6104962 123.773596,76.5817439 C123.430986,76.5548535 123.132041,76.3385125 122.998848,76.0210741 C122.847349,75.7185546 122.77807,75.3813782 122.797987,75.043496 C122.797987,74.0850861 122.898418,72.144306 123.099278,69.2211558 C123.214056,68.368171 123.36231,67.1222381 123.544041,65.4833572 C123.094496,65.5983663 122.3054,65.857137 121.176755,66.2596692 C120.716555,66.4850083 120.279302,66.7546304 119.87116,67.0647335 C119.569869,67.2947519 119.369008,67.3810088 119.254231,67.3378803 C118.680343,67.1941188 118.393399,66.9257641 118.393399,66.532816 C118.393399,66.1398679 118.976852,65.660663 120.143757,65.0952011 C120.918505,64.8268464 122.166711,64.4195222 123.888374,63.8732285 C124.022281,63.1160847 124.247054,61.3382343 124.562692,58.5396774 C124.58092,58.3532337 124.58092,58.1654512 124.562692,57.9790076 L124.562692,57.2889524 C124.562692,56.570145 124.768335,56.2107413 125.179621,56.2107413 C125.734379,56.2107413 126.011758,56.8768362 126.011758,58.2090259 C126.011758,58.6403104 126.011758,59.1290994 125.925675,59.6466408 C125.839592,60.1641822 125.624384,61.6593016 125.33744,63.5569532 C126.801703,63.2715134 128.295767,63.1700984 129.78507,63.2550541 C130.132604,63.2546969 130.479089,63.2932729 130.818068,63.3700633 C131.210225,63.4754884 131.415868,63.6863386 131.434997,64.0026138 L131.434997,64.0026138 Z" id="Shape" fill="#6D6E70"></path>
                            <path d="M133.931409,56.3976312 C133.797502,56.6755701 133.548817,57.250616 133.185355,58.122769 C133.050859,58.5042891 132.959423,58.899701 132.912758,59.3016132 C132.912758,59.6178885 132.841022,59.8143625 132.69755,59.8910353 C132.424954,60.2216867 132.152357,60.2791913 131.922802,60.0635491 C131.743158,59.8253957 131.665702,59.5252953 131.707594,59.2297325 C131.722633,58.5789463 131.884497,57.9400137 132.181051,57.3608332 L132.683203,55.9232183 C132.743827,55.6463225 132.988528,55.44897 133.271438,55.4488054 C133.759243,55.50631 133.931409,55.8082091 133.931409,56.3976312 L133.931409,56.3976312 Z M133.931409,65.7133755 C133.539252,69.2978286 133.31448,71.5548839 133.257091,72.4845416 C133.207905,73.0397938 133.256468,73.5993873 133.400563,74.1377987 C133.484352,74.3576522 133.551495,74.5835175 133.601423,74.8134776 C133.594636,74.9842312 133.565698,75.1533735 133.51534,75.3166428 C133.443604,75.5897897 133.214049,75.7335512 132.841022,75.7335512 C132.593214,75.727694 132.355022,75.6362877 132.166704,75.4747805 C131.946714,75.3022667 131.836719,74.7032605 131.836719,73.6777619 C131.836719,73.6777619 131.937149,71.6075965 132.109315,67.6541556 C132.181051,66.3459261 132.224093,65.6414948 132.252787,65.5121095 C132.367565,64.8364305 132.611467,64.505779 132.998841,64.4770268 C133.267193,64.457928 133.526766,64.5771389 133.687507,64.793302 C133.89111,65.0535896 133.97927,65.3861578 133.931409,65.7133755 L133.931409,65.7133755 Z" id="Shape" fill="#6D6E70"></path>
                            <path d="M144.777887,62.6081274 C144.854405,63.0202437 144.658327,63.2263018 144.189652,63.2263018 C143.963893,63.2205135 143.742687,63.161406 143.544028,63.053788 C143.415265,62.9746984 143.274846,62.9164769 143.127959,62.8812742 C142.662111,62.9271692 142.223898,63.1240061 141.879754,63.441944 L139.670286,65.4833572 C139.02964,66.06631 138.516676,66.776118 138.163831,67.5678987 C137.869785,68.1033077 137.735334,68.7120537 137.776457,69.3217889 C137.894666,70.063176 138.358201,70.7038242 139.024662,71.0469267 L141.420644,71.9670002 C142.721456,72.4653734 143.462727,72.7720645 143.644458,72.8870737 C144.251273,73.2382392 144.655865,73.8570209 144.734845,74.554707 C144.792234,75.0530801 144.012703,75.8054319 142.396253,76.8117623 C141.594533,77.4218801 140.690947,77.88432 139.727675,78.1774964 C139.053357,78.1774964 138.723371,77.9043496 138.723371,77.4299367 C138.727665,77.274486 138.788955,77.1260672 138.895538,77.0130284 L141.119352,75.9491934 C142.487118,75.2591382 143.147089,74.7320128 143.099265,74.367817 C143.051441,74.0036213 142.463206,73.6538016 141.33456,73.3183582 C140.261097,73.0212656 139.218543,72.6216962 138.22122,72.1251378 C137.191853,71.6413985 136.478426,70.6665801 136.32739,69.5374311 C136.258888,67.8656324 136.906195,66.2440999 138.106442,65.080825 C139.211736,63.9181963 140.390648,62.8281427 141.635851,61.8174392 C142.115749,61.3671518 142.822469,61.2586455 143.414903,61.5442924 L144.218346,62.0187053 C144.577026,62.2918522 144.763539,62.4787421 144.777887,62.6081274 L144.777887,62.6081274 Z" id="Shape" fill="#6D6E70"></path>
                            <path d="M157.632971,64.0026138 C157.632971,64.3763937 157.432111,64.5632836 156.958653,64.5632836 L156.456502,64.5632836 L156.011739,64.5632836 C154.444745,64.6035318 152.886474,64.8107567 151.363248,65.181458 C150.992784,68.0087504 150.786793,70.8552451 150.746319,73.7065142 L150.746319,75.0722483 L150.746319,75.4028997 C150.764915,75.5701039 150.764915,75.7388608 150.746319,75.9060649 C150.746319,76.3852699 150.488069,76.6104962 149.97157,76.5817439 C149.62896,76.5548535 149.330015,76.3385125 149.196822,76.0210741 C149.043345,75.7192462 148.973954,75.3815261 148.995961,75.043496 C148.995961,74.0850861 149.096392,72.144306 149.297252,69.2211558 C149.41203,68.368171 149.560284,67.1222381 149.742015,65.4833572 C149.29247,65.5983663 148.503374,65.857137 147.374729,66.2596692 C146.914264,66.4845253 146.476965,66.7541757 146.069134,67.0647335 C145.767843,67.2947519 145.566982,67.3810088 145.452205,67.3378803 C144.878317,67.1941188 144.591373,66.9257641 144.591373,66.532816 C144.591373,66.1398679 145.174826,65.660663 146.341731,65.0952011 C146.992137,64.8364305 148.197301,64.4386904 149.957223,63.9019808 C150.09113,63.144837 150.315903,61.3669866 150.631541,58.5684297 C150.65227,58.3821168 150.65227,58.1940727 150.631541,58.0077599 L150.631541,57.3177047 C150.631541,56.5988973 150.837184,56.2394936 151.248471,56.2394936 C151.659757,56.2394936 151.937136,56.9055885 152.080608,58.2377782 C152.080608,58.6690627 152.080608,59.1578517 151.994525,59.6753931 C151.908441,60.1929344 151.693234,61.6880539 151.40629,63.5857055 C152.850597,63.295234 154.325118,63.1841802 155.796531,63.2550541 C156.144065,63.2546969 156.490549,63.2932729 156.829529,63.3700633 C157.417764,63.4850725 157.618624,63.6863386 157.632971,64.0026138 L157.632971,64.0026138 Z" id="Shape" fill="#6D6E70"></path>
                            <path d="M168.909865,64.0601184 C169.168114,64.1463753 169.297239,64.3907699 169.297239,64.7789259 C169.297239,65.1670819 169.082031,65.3395957 168.651615,65.4546049 C168.432583,65.4850363 168.209415,65.4552205 168.005992,65.368348 C167.799138,65.2884496 167.581524,65.2399933 167.360368,65.2245865 C167.105072,65.2358759 166.857418,65.3152852 166.643008,65.4546049 C164.238294,67.1371662 162.234491,69.3315613 160.775007,71.8807433 C160.323283,72.635389 160.062259,73.4891313 160.014605,74.367817 C159.998123,74.9417374 159.911392,75.5114601 159.756356,76.0642026 C159.610338,76.257428 159.381285,76.3695166 159.139427,76.3661017 C158.854483,76.3703554 158.581928,76.2495587 158.393373,76.0354503 C158.225559,75.8135999 158.148584,75.5359312 158.178165,75.2591382 C158.178165,75.0195358 158.235553,74.4540739 158.350331,73.5627527 C158.465109,72.6714315 158.555974,71.7705262 158.622928,70.8600368 L158.622928,68.9623851 C158.65109,67.8284354 158.550006,66.6949695 158.321637,65.5839902 C158.120776,64.7501736 158.020346,64.405146 158.020346,64.5489075 C158.007535,64.5018467 158.007535,64.4522068 158.020346,64.405146 C158.167186,64.1079471 158.464387,63.914928 158.795094,63.9019808 C159.027872,63.9113137 159.248407,64.0089561 159.412023,64.1751276 C159.877861,65.0050141 160.073476,65.959936 159.971564,66.9065959 L159.971564,70.2849908 C160.358938,69.7674495 160.746312,69.2786604 161.148034,68.8473759 C161.932181,67.8851136 162.775523,66.9728494 163.67314,66.1159077 C164.581795,65.2629229 165.136553,64.7837179 165.337414,64.6782928 C165.964769,64.2101216 166.721824,63.9488875 167.50384,63.9307331 C167.976462,63.8906497 168.452435,63.9344497 168.909865,64.0601184 L168.909865,64.0601184 Z" id="Shape" fill="#6D6E70"></path>
                            <path d="M178.077721,68.4448438 C177.819472,71.080471 177.384273,75.2735144 176.772127,81.0239739 C176.647784,82.193234 176.4804,83.5014635 176.269975,84.9486624 C176.126503,85.9933292 176.054767,86.6067116 176.054767,86.7888095 C176.04124,86.8552135 176.04124,86.9236715 176.054767,86.9900756 C176.308936,87.3079889 176.44577,87.7040841 176.442141,88.1114152 C176.442141,88.6002042 176.126503,88.8445987 175.495226,88.8589749 C174.86395,88.873351 174.333104,88.5858281 174.333104,87.9676537 C174.333104,87.3494793 174.447881,87.133837 174.663089,87.0763324 C175.18879,84.1419383 175.552803,81.1807595 175.753476,78.2062487 C176.155197,74.3726091 176.384752,71.0181744 176.442141,68.1429447 C173.123157,72.235355 170.942384,74.271976 169.899821,74.2528078 C169.364193,74.2528078 169.091596,73.6490096 169.082031,72.4414131 C169.082031,71.8280308 169.330716,69.7578654 169.828085,66.2309169 C169.971557,65.1383296 170.05764,64.5345313 170.071988,64.4482745 C170.186765,63.9786536 170.382843,63.7102988 170.660222,63.6432101 C170.937602,63.5761214 171.148027,63.6432101 171.291499,63.8444762 C171.523483,63.9718297 171.682716,64.2005247 171.721915,64.4626506 C171.721915,64.596828 171.535401,65.5983663 171.162374,67.4672657 C170.882646,68.7264991 170.695629,70.0046249 170.602834,71.2913212 C170.602834,71.6651011 170.67457,71.851991 170.832389,71.851991 C170.990208,71.851991 171.807998,71.2913212 172.855343,70.1556055 C173.285759,69.6955687 174.352233,68.468804 176.054767,66.4753114 C176.054767,66.4753114 176.226933,66.1877884 176.49953,65.6702471 C176.772127,65.1527057 176.886904,65.1670819 177.116459,65.1670819 C177.216284,65.1514492 177.317926,65.1514492 177.41775,65.1670819 C177.867296,65.3300116 178.092068,66.1111156 178.092068,67.5103941 C178.108815,67.8218358 178.104021,68.1340657 178.077721,68.4448438 L178.077721,68.4448438 Z" id="Shape" fill="#6D6E70"></path>
                            <polyline id="Shape" stroke="#6D6E70" stroke-width="0.42" points="16.0548729 47.7144374 0.186877648 47.7144374 0.186877648 0.345027568 182.080588 0.345027568 182.080588 47.7144374 166.155204 47.7144374"></polyline>
                        </g>
                    </g>
                    <text id="PAUL-HEATH,-DDS" font-family="Lato-Bold, Lato" font-size="18" font-weight="bold" fill="#5E5A49">
                        <tspan x="12.083" y="108">PAUL HEATH, DDS</tspan>
                    </text>
                </g>
            </g>
        </g>
    </g>
</svg>