<?xml version="1.0" encoding="UTF-8"?>
<svg width="250px" height="250px" viewBox="0 0 250 250" version="1.1" xmlns="http://www.w3.org/2000/svg" xmlns:xlink="http://www.w3.org/1999/xlink">
    <!-- Generator: Sketch 40.3 (33839) - http://www.bohemiancoding.com/sketch -->
    <title>New Patient hotline icon</title>
    <desc>Created with Sketch.</desc>
    <defs></defs>
    <g id="Page-1" stroke="none" stroke-width="1" fill="none" fill-rule="evenodd">
        <g id="HEATH-HOMEPAGE" transform="translate(-427.000000, -715.000000)">
            <g id="Group-9" transform="translate(241.000000, 705.000000)">
                <g id="New-Patient-hotline-icon" transform="translate(186.000000, 10.000000)">
                    <circle id="Oval" fill="#487935" cx="125" cy="125" r="125"></circle>
                    <path d="M202.942059,175.123529 L202.942059,166.264706 C202.947941,164.170588 201.595,162.314706 199.595,161.679412 L164.730294,150.629412 C163.024412,150.088235 161.159706,150.544118 159.892059,151.808824 L146.945,164.758824 C145.421471,166.282353 143.086176,166.617647 141.212647,165.552941 C135.895,162.532353 124.524412,155.258824 111.103824,141.838235 C97.6832353,128.417647 90.4097059,117.047059 87.3891176,111.726471 C86.3214706,109.855882 86.6597059,107.520588 88.1832353,105.997059 L101.130294,93.0470588 C102.397941,91.7823529 102.850882,89.9147059 102.312647,88.2088235 L91.2626471,53.3470588 C90.6273529,51.3470588 88.7714706,49.9941176 86.6744118,50 L77.8185294,50 C73.3597059,50.0588235 55.8832353,69.4382353 55.8832353,83.0029412 C55.8832353,91.2794118 58.9685294,121.341176 95.2655882,157.644118 C131.568529,193.944118 161.662647,197.058824 169.939118,197.058824 C183.500882,197.058824 202.883235,179.582353 202.942059,175.123529 Z" id="Fill-1-Copy" fill="#FFFFFF"></path>
                </g>
            </g>
        </g>
    </g>
</svg>